<svg width="197" height="29" viewBox="0 0 197 29" fill="none" xmlns="http://www.w3.org/2000/svg">
<g id="Vector">
<path d="M73.9902 11.2207V23.5121H69.502V11.2207H64.9626V7.30748H78.5168V11.2207H73.9902Z" fill="#FCFCFD"/>
<path d="M89.0062 18.624H81.8765C82.0175 19.9712 82.7998 20.5614 83.941 20.5614C85.0053 20.5614 85.8902 20.3305 87.0827 19.7018L88.6728 22.3705C87.1725 23.2558 85.6209 23.7561 83.723 23.7561C80.0684 23.7561 78.0552 21.1644 78.0552 17.4308C78.0552 13.2353 80.4146 11.0927 83.6076 11.0927C86.9417 11.0927 89.019 13.2867 89.019 17.8029C89.019 18.1622 89.019 18.4188 89.0062 18.624ZM83.4922 14.1848C82.5433 14.1848 82.0175 14.8391 81.8765 16.0323H85.3516C85.1336 14.8006 84.7232 14.1848 83.4922 14.1848Z" fill="#FCFCFD"/>
<path d="M96.7515 23.7687C93.1866 23.7687 91.0579 21.4977 91.0579 17.4049C91.0579 13.6713 92.9558 11.1052 96.8412 11.1052C99.1366 11.1052 100.445 12.1701 101.509 13.8765L98.6365 16.0577C98.0594 14.9928 97.6619 14.4796 96.7643 14.4796C95.7 14.4796 95.1614 15.5445 95.1614 17.469C95.1614 19.3936 95.7384 20.3815 96.8797 20.3815C97.6619 20.3815 98.2261 19.9452 98.9827 18.8034L101.624 20.869C100.214 22.9475 98.9058 23.7687 96.7515 23.7687Z" fill="#FCFCFD"/>
<path d="M110.947 23.5122V16.6095C110.947 15.0314 110.421 14.6209 109.562 14.6209C108.677 14.6209 108.151 15.0314 108.151 16.571V23.5122H103.984V8.29554L108.151 6.62761V12.1703C108.921 11.5929 109.767 11.1054 111.203 11.1054C113.87 11.1054 115.14 12.8888 115.14 16.0835V23.5122H110.947Z" fill="#FCFCFD"/>
<path d="M125.104 23.7688C120.295 23.7688 117.717 20.202 117.717 15.4164C117.717 10.2073 120.769 7.06386 125.116 7.06386C129.092 7.06386 130.669 8.78312 131.785 11.8367L127.72 13.4148C127.143 11.9137 126.591 10.9643 125.104 10.9643C123.231 10.9643 122.424 12.8375 122.424 15.4035C122.424 17.8798 123.206 19.8428 125.155 19.8428C126.565 19.8428 127.168 19.073 128.04 17.5462L131.836 19.5605C130.759 21.7032 128.951 23.7688 125.104 23.7688Z" fill="#FCFCFD"/>
<path d="M142.082 15.9425C141.556 15.3651 140.953 14.9289 140.145 14.9289C139.132 14.9289 138.504 15.4164 138.504 16.8919V23.5123H134.336V11.3621H138.504V12.2474C139.222 11.5545 140.03 11.1183 141.094 11.1183C141.979 11.1183 142.569 11.3236 143.056 11.6315L142.082 15.9425Z" fill="#FCFCFD"/>
<path d="M151.981 23.5123V22.7039C151.237 23.2813 150.365 23.7689 148.955 23.7689C146.288 23.7689 145.018 21.9855 145.018 18.7907V11.362H149.211V18.2647C149.211 19.8428 149.737 20.2534 150.596 20.2534C151.455 20.2534 151.981 19.8428 151.981 18.3032V11.362H156.174V23.5123H151.981Z" fill="#FCFCFD"/>
<path d="M166.138 23.5121V16.6094C166.138 15.0313 165.612 14.6207 164.753 14.6207C163.868 14.6207 163.343 15.0313 163.343 16.5709V23.5121H159.175V11.3618H163.343V12.1701C164.112 11.5928 164.958 11.1052 166.395 11.1052C169.062 11.1052 170.331 12.8886 170.331 16.0834V23.5121H166.138Z" fill="#FCFCFD"/>
<path d="M178.448 23.7687C174.884 23.7687 172.755 21.4977 172.755 17.4049C172.755 13.6713 174.653 11.1052 178.538 11.1052C180.834 11.1052 182.142 12.1701 183.206 13.8765L180.333 16.0577C179.756 14.9928 179.359 14.4796 178.461 14.4796C177.397 14.4796 176.858 15.5445 176.858 17.469C176.858 19.3936 177.435 20.3815 178.577 20.3815C179.359 20.3815 179.923 19.9452 180.68 18.8034L183.321 20.869C181.911 22.9475 180.603 23.7687 178.448 23.7687Z" fill="#FCFCFD"/>
<path d="M192.644 23.5122V16.6095C192.644 15.0314 192.118 14.6209 191.259 14.6209C190.374 14.6209 189.848 15.0314 189.848 16.571V23.5122H185.681V8.29554L189.848 6.62761V12.1703C190.618 11.5929 191.464 11.1054 192.9 11.1054C195.567 11.1054 196.837 12.8888 196.837 16.0835V23.5122H192.644Z" fill="#FCFCFD"/>
<path d="M0 0.366455V9.62989H9.25838V28.1439H18.5039V9.62989H27.7623V0.366455H0Z" fill="#FCFCFD"/>
<path d="M37.0079 18.8806V9.62997L27.7623 9.62989L27.7623 28.144H55.5119V18.8806H37.0079Z" fill="#FCFCFD"/>
<path d="M55.5119 0.366455H37.0079L37.0079 9.62997L55.5119 9.62989V0.366455Z" fill="#FCFCFD"/>
</g>
</svg>
